<mxfile host="app.diagrams.net" agent="Mozilla/5.0 (Windows NT 10.0; Win64; x64) AppleWebKit/537.36 (KHTML, like Gecko) Chrome/132.0.0.0 Safari/537.36 OPR/117.0.0.0" version="26.2.6">
  <diagram name="Página-1" id="_i8_kuOUi_fpuJAtbyiE">
    <mxGraphModel dx="1107" dy="635" grid="1" gridSize="10" guides="1" tooltips="1" connect="1" arrows="1" fold="1" page="1" pageScale="1" pageWidth="827" pageHeight="1169" math="0" shadow="0">
      <root>
        <mxCell id="0" />
        <mxCell id="1" parent="0" />
        <mxCell id="gMwwXliwbp9NPooSaeSw-3" value="&lt;h1 style=&quot;margin-top: 0px;&quot;&gt;Actores&lt;/h1&gt;&lt;p&gt;Usuario Cliente&lt;/p&gt;&lt;p&gt;Usuario Administrador&lt;/p&gt;" style="text;html=1;whiteSpace=wrap;overflow=hidden;rounded=0;" vertex="1" parent="1">
          <mxGeometry x="10" y="10" width="380" height="120" as="geometry" />
        </mxCell>
        <mxCell id="gMwwXliwbp9NPooSaeSw-4" value="&lt;h1 style=&quot;margin-top: 0px;&quot;&gt;Funcionalidades&lt;/h1&gt;&lt;div&gt;Dentro del sistema tenemos dos actores principales:&lt;/div&gt;&lt;div&gt;&lt;br&gt;&lt;/div&gt;&lt;div&gt;Cliente, que tendrá un nombre de usuario, email, contraseña.&lt;/div&gt;&lt;div&gt;&lt;br&gt;&lt;/div&gt;&lt;div&gt;Administrador, usuario, email, contraseña,&amp;nbsp;&lt;/div&gt;&lt;div&gt;&lt;br&gt;&lt;/div&gt;&lt;div&gt;Se engloba a ambos roles en una entidad Usuario, que tiene el atributo Tipo_Usuario&lt;/div&gt;&lt;p&gt;El cliente debe poder seleccionar un turno.&lt;/p&gt;&lt;p&gt;Cada turno tiene información como fecha, el servicio, los turnos, estarán identificados por un ID propio y un turno corresponderá solo a un cliente, un cliente puede pedir mas de un turno pero no en el mismo horario.&amp;nbsp;&lt;/p&gt;&lt;div&gt;&lt;br&gt;&lt;/div&gt;" style="text;html=1;whiteSpace=wrap;overflow=hidden;rounded=0;" vertex="1" parent="1">
          <mxGeometry x="10" y="120" width="550" height="230" as="geometry" />
        </mxCell>
        <mxCell id="gMwwXliwbp9NPooSaeSw-9" value="Cliente" style="whiteSpace=wrap;html=1;align=center;" vertex="1" parent="1">
          <mxGeometry x="204" y="577" width="100" height="40" as="geometry" />
        </mxCell>
        <mxCell id="gMwwXliwbp9NPooSaeSw-12" value="Email" style="ellipse;whiteSpace=wrap;html=1;align=center;" vertex="1" parent="1">
          <mxGeometry x="40" y="527" width="100" height="40" as="geometry" />
        </mxCell>
        <mxCell id="gMwwXliwbp9NPooSaeSw-13" value="Nombre_Usuario" style="ellipse;whiteSpace=wrap;html=1;align=center;" vertex="1" parent="1">
          <mxGeometry x="20" y="577" width="100" height="40" as="geometry" />
        </mxCell>
        <mxCell id="gMwwXliwbp9NPooSaeSw-14" value="Contraseña" style="ellipse;whiteSpace=wrap;html=1;align=center;" vertex="1" parent="1">
          <mxGeometry x="80" y="477" width="100" height="40" as="geometry" />
        </mxCell>
        <mxCell id="gMwwXliwbp9NPooSaeSw-16" value="" style="endArrow=none;html=1;rounded=0;exitX=1;exitY=0.5;exitDx=0;exitDy=0;entryX=0;entryY=0.5;entryDx=0;entryDy=0;" edge="1" parent="1" source="gMwwXliwbp9NPooSaeSw-13" target="gMwwXliwbp9NPooSaeSw-9">
          <mxGeometry width="50" height="50" relative="1" as="geometry">
            <mxPoint x="380" y="567" as="sourcePoint" />
            <mxPoint x="430" y="517" as="targetPoint" />
          </mxGeometry>
        </mxCell>
        <mxCell id="gMwwXliwbp9NPooSaeSw-17" value="" style="endArrow=none;html=1;rounded=0;exitX=0.937;exitY=0.721;exitDx=0;exitDy=0;entryX=0;entryY=0;entryDx=0;entryDy=0;exitPerimeter=0;" edge="1" parent="1" source="gMwwXliwbp9NPooSaeSw-12" target="gMwwXliwbp9NPooSaeSw-9">
          <mxGeometry width="50" height="50" relative="1" as="geometry">
            <mxPoint x="130" y="607" as="sourcePoint" />
            <mxPoint x="210" y="607" as="targetPoint" />
          </mxGeometry>
        </mxCell>
        <mxCell id="gMwwXliwbp9NPooSaeSw-18" value="" style="endArrow=none;html=1;rounded=0;exitX=1;exitY=1;exitDx=0;exitDy=0;entryX=0.25;entryY=0;entryDx=0;entryDy=0;" edge="1" parent="1" source="gMwwXliwbp9NPooSaeSw-14" target="gMwwXliwbp9NPooSaeSw-9">
          <mxGeometry width="50" height="50" relative="1" as="geometry">
            <mxPoint x="160" y="557" as="sourcePoint" />
            <mxPoint x="210" y="587" as="targetPoint" />
          </mxGeometry>
        </mxCell>
        <mxCell id="gMwwXliwbp9NPooSaeSw-20" value="Telefono" style="ellipse;shape=doubleEllipse;margin=3;whiteSpace=wrap;html=1;align=center;" vertex="1" parent="1">
          <mxGeometry x="80" y="627" width="100" height="40" as="geometry" />
        </mxCell>
        <mxCell id="gMwwXliwbp9NPooSaeSw-21" value="" style="endArrow=none;html=1;rounded=0;exitX=1;exitY=0;exitDx=0;exitDy=0;entryX=0;entryY=1;entryDx=0;entryDy=0;" edge="1" parent="1" source="gMwwXliwbp9NPooSaeSw-20" target="gMwwXliwbp9NPooSaeSw-9">
          <mxGeometry width="50" height="50" relative="1" as="geometry">
            <mxPoint x="130" y="607" as="sourcePoint" />
            <mxPoint x="210" y="607" as="targetPoint" />
          </mxGeometry>
        </mxCell>
        <mxCell id="gMwwXliwbp9NPooSaeSw-24" value="Turno" style="whiteSpace=wrap;html=1;align=center;" vertex="1" parent="1">
          <mxGeometry x="541.04" y="577" width="100" height="40" as="geometry" />
        </mxCell>
        <mxCell id="gMwwXliwbp9NPooSaeSw-26" value="Pide" style="shape=rhombus;perimeter=rhombusPerimeter;whiteSpace=wrap;html=1;align=center;" vertex="1" parent="1">
          <mxGeometry x="360" y="567" width="120" height="60" as="geometry" />
        </mxCell>
        <mxCell id="gMwwXliwbp9NPooSaeSw-30" value="Servicio_Seleccionado" style="ellipse;whiteSpace=wrap;html=1;align=center;" vertex="1" parent="1">
          <mxGeometry x="664.04" y="542" width="150" height="40" as="geometry" />
        </mxCell>
        <mxCell id="gMwwXliwbp9NPooSaeSw-33" value="Cliente_ID" style="ellipse;whiteSpace=wrap;html=1;align=center;fontStyle=4;" vertex="1" parent="1">
          <mxGeometry x="204" y="647" width="100" height="40" as="geometry" />
        </mxCell>
        <mxCell id="gMwwXliwbp9NPooSaeSw-35" value="" style="endArrow=none;html=1;rounded=0;exitX=1;exitY=0.5;exitDx=0;exitDy=0;entryX=0;entryY=0.5;entryDx=0;entryDy=0;" edge="1" parent="1" source="gMwwXliwbp9NPooSaeSw-9" target="gMwwXliwbp9NPooSaeSw-26">
          <mxGeometry relative="1" as="geometry">
            <mxPoint x="300" y="507" as="sourcePoint" />
            <mxPoint x="460" y="507" as="targetPoint" />
          </mxGeometry>
        </mxCell>
        <mxCell id="gMwwXliwbp9NPooSaeSw-42" value="(1;N)" style="edgeLabel;html=1;align=center;verticalAlign=middle;resizable=0;points=[];" vertex="1" connectable="0" parent="gMwwXliwbp9NPooSaeSw-35">
          <mxGeometry x="0.1042" y="-2" relative="1" as="geometry">
            <mxPoint as="offset" />
          </mxGeometry>
        </mxCell>
        <mxCell id="gMwwXliwbp9NPooSaeSw-36" value="" style="endArrow=none;html=1;rounded=0;entryX=0;entryY=0.5;entryDx=0;entryDy=0;exitX=1;exitY=0.5;exitDx=0;exitDy=0;" edge="1" parent="1" source="gMwwXliwbp9NPooSaeSw-26" target="gMwwXliwbp9NPooSaeSw-24">
          <mxGeometry relative="1" as="geometry">
            <mxPoint x="480" y="597" as="sourcePoint" />
            <mxPoint x="370" y="607" as="targetPoint" />
          </mxGeometry>
        </mxCell>
        <mxCell id="gMwwXliwbp9NPooSaeSw-43" value="(1;1)" style="edgeLabel;html=1;align=center;verticalAlign=middle;resizable=0;points=[];" vertex="1" connectable="0" parent="gMwwXliwbp9NPooSaeSw-36">
          <mxGeometry x="-0.0309" y="1" relative="1" as="geometry">
            <mxPoint as="offset" />
          </mxGeometry>
        </mxCell>
        <mxCell id="gMwwXliwbp9NPooSaeSw-38" value="Turno_ID" style="ellipse;whiteSpace=wrap;html=1;align=center;fontStyle=4;" vertex="1" parent="1">
          <mxGeometry x="664.04" y="607" width="100" height="40" as="geometry" />
        </mxCell>
        <mxCell id="gMwwXliwbp9NPooSaeSw-40" value="" style="endArrow=none;html=1;rounded=0;exitX=1;exitY=0;exitDx=0;exitDy=0;entryX=0.013;entryY=0.638;entryDx=0;entryDy=0;entryPerimeter=0;" edge="1" parent="1" source="gMwwXliwbp9NPooSaeSw-24" target="gMwwXliwbp9NPooSaeSw-30">
          <mxGeometry relative="1" as="geometry">
            <mxPoint x="601.04" y="582" as="sourcePoint" />
            <mxPoint x="654.04" y="513" as="targetPoint" />
          </mxGeometry>
        </mxCell>
        <mxCell id="gMwwXliwbp9NPooSaeSw-41" value="" style="endArrow=none;html=1;rounded=0;exitX=1;exitY=0.75;exitDx=0;exitDy=0;entryX=0;entryY=0.5;entryDx=0;entryDy=0;" edge="1" parent="1" source="gMwwXliwbp9NPooSaeSw-24" target="gMwwXliwbp9NPooSaeSw-38">
          <mxGeometry relative="1" as="geometry">
            <mxPoint x="651.04" y="582" as="sourcePoint" />
            <mxPoint x="699.04" y="556" as="targetPoint" />
          </mxGeometry>
        </mxCell>
        <mxCell id="gMwwXliwbp9NPooSaeSw-44" value="" style="endArrow=none;html=1;rounded=0;exitX=0.5;exitY=0;exitDx=0;exitDy=0;entryX=0.5;entryY=1;entryDx=0;entryDy=0;" edge="1" parent="1" source="gMwwXliwbp9NPooSaeSw-33" target="gMwwXliwbp9NPooSaeSw-9">
          <mxGeometry width="50" height="50" relative="1" as="geometry">
            <mxPoint x="260" y="517" as="sourcePoint" />
            <mxPoint x="264" y="587" as="targetPoint" />
          </mxGeometry>
        </mxCell>
        <mxCell id="gMwwXliwbp9NPooSaeSw-56" value="" style="endArrow=none;html=1;rounded=0;exitX=0.25;exitY=0;exitDx=0;exitDy=0;entryX=0.712;entryY=0.971;entryDx=0;entryDy=0;entryPerimeter=0;" edge="1" parent="1" source="gMwwXliwbp9NPooSaeSw-24" target="gMwwXliwbp9NPooSaeSw-57">
          <mxGeometry relative="1" as="geometry">
            <mxPoint x="555.6846609406728" y="487.85786437626916" as="sourcePoint" />
            <mxPoint x="601.04" y="532" as="targetPoint" />
          </mxGeometry>
        </mxCell>
        <mxCell id="gMwwXliwbp9NPooSaeSw-57" value="Fecha" style="ellipse;whiteSpace=wrap;html=1;align=center;" vertex="1" parent="1">
          <mxGeometry x="474.03999999999996" y="490" width="100" height="40" as="geometry" />
        </mxCell>
        <mxCell id="gMwwXliwbp9NPooSaeSw-58" value="HoraFin" style="ellipse;whiteSpace=wrap;html=1;align=center;" vertex="1" parent="1">
          <mxGeometry x="634.04" y="472" width="100" height="40" as="geometry" />
        </mxCell>
        <mxCell id="gMwwXliwbp9NPooSaeSw-59" value="" style="endArrow=none;html=1;rounded=0;exitX=0.75;exitY=0;exitDx=0;exitDy=0;entryX=0.303;entryY=0.992;entryDx=0;entryDy=0;entryPerimeter=0;" edge="1" parent="1" source="gMwwXliwbp9NPooSaeSw-24" target="gMwwXliwbp9NPooSaeSw-58">
          <mxGeometry relative="1" as="geometry">
            <mxPoint x="626.3953390593274" y="487.85786437626916" as="sourcePoint" />
            <mxPoint x="545.04" y="471" as="targetPoint" />
          </mxGeometry>
        </mxCell>
        <mxCell id="gMwwXliwbp9NPooSaeSw-60" value="HoraInicio" style="ellipse;whiteSpace=wrap;html=1;align=center;" vertex="1" parent="1">
          <mxGeometry x="541.04" y="450" width="100" height="40" as="geometry" />
        </mxCell>
        <mxCell id="gMwwXliwbp9NPooSaeSw-61" value="" style="endArrow=none;html=1;rounded=0;exitX=0.5;exitY=0;exitDx=0;exitDy=0;entryX=0.5;entryY=1;entryDx=0;entryDy=0;" edge="1" parent="1" source="gMwwXliwbp9NPooSaeSw-24" target="gMwwXliwbp9NPooSaeSw-60">
          <mxGeometry relative="1" as="geometry">
            <mxPoint x="591.04" y="482" as="sourcePoint" />
            <mxPoint x="535.04" y="471" as="targetPoint" />
          </mxGeometry>
        </mxCell>
        <mxCell id="gMwwXliwbp9NPooSaeSw-82" value="&lt;b&gt;BASE DE DATOS&lt;/b&gt;" style="text;strokeColor=none;fillColor=none;spacingLeft=4;spacingRight=4;overflow=hidden;rotatable=0;points=[[0,0.5],[1,0.5]];portConstraint=eastwest;fontSize=12;whiteSpace=wrap;html=1;" vertex="1" parent="1">
          <mxGeometry x="15" y="390" width="150" height="30" as="geometry" />
        </mxCell>
        <mxCell id="gMwwXliwbp9NPooSaeSw-85" value="Cliente" style="shape=table;startSize=30;container=1;collapsible=1;childLayout=tableLayout;fixedRows=1;rowLines=0;fontStyle=1;align=center;resizeLast=1;html=1;" vertex="1" parent="1">
          <mxGeometry x="250" y="780" width="180" height="150" as="geometry" />
        </mxCell>
        <mxCell id="gMwwXliwbp9NPooSaeSw-86" value="" style="shape=tableRow;horizontal=0;startSize=0;swimlaneHead=0;swimlaneBody=0;fillColor=none;collapsible=0;dropTarget=0;points=[[0,0.5],[1,0.5]];portConstraint=eastwest;top=0;left=0;right=0;bottom=1;" vertex="1" parent="gMwwXliwbp9NPooSaeSw-85">
          <mxGeometry y="30" width="180" height="30" as="geometry" />
        </mxCell>
        <mxCell id="gMwwXliwbp9NPooSaeSw-87" value="PK" style="shape=partialRectangle;connectable=0;fillColor=none;top=0;left=0;bottom=0;right=0;fontStyle=1;overflow=hidden;whiteSpace=wrap;html=1;" vertex="1" parent="gMwwXliwbp9NPooSaeSw-86">
          <mxGeometry width="30" height="30" as="geometry">
            <mxRectangle width="30" height="30" as="alternateBounds" />
          </mxGeometry>
        </mxCell>
        <mxCell id="gMwwXliwbp9NPooSaeSw-88" value="Cliente_ID" style="shape=partialRectangle;connectable=0;fillColor=none;top=0;left=0;bottom=0;right=0;align=left;spacingLeft=6;fontStyle=5;overflow=hidden;whiteSpace=wrap;html=1;" vertex="1" parent="gMwwXliwbp9NPooSaeSw-86">
          <mxGeometry x="30" width="150" height="30" as="geometry">
            <mxRectangle width="150" height="30" as="alternateBounds" />
          </mxGeometry>
        </mxCell>
        <mxCell id="gMwwXliwbp9NPooSaeSw-89" value="" style="shape=tableRow;horizontal=0;startSize=0;swimlaneHead=0;swimlaneBody=0;fillColor=none;collapsible=0;dropTarget=0;points=[[0,0.5],[1,0.5]];portConstraint=eastwest;top=0;left=0;right=0;bottom=0;" vertex="1" parent="gMwwXliwbp9NPooSaeSw-85">
          <mxGeometry y="60" width="180" height="30" as="geometry" />
        </mxCell>
        <mxCell id="gMwwXliwbp9NPooSaeSw-90" value="" style="shape=partialRectangle;connectable=0;fillColor=none;top=0;left=0;bottom=0;right=0;editable=1;overflow=hidden;whiteSpace=wrap;html=1;" vertex="1" parent="gMwwXliwbp9NPooSaeSw-89">
          <mxGeometry width="30" height="30" as="geometry">
            <mxRectangle width="30" height="30" as="alternateBounds" />
          </mxGeometry>
        </mxCell>
        <mxCell id="gMwwXliwbp9NPooSaeSw-91" value="Nombre_Usuario" style="shape=partialRectangle;connectable=0;fillColor=none;top=0;left=0;bottom=0;right=0;align=left;spacingLeft=6;overflow=hidden;whiteSpace=wrap;html=1;" vertex="1" parent="gMwwXliwbp9NPooSaeSw-89">
          <mxGeometry x="30" width="150" height="30" as="geometry">
            <mxRectangle width="150" height="30" as="alternateBounds" />
          </mxGeometry>
        </mxCell>
        <mxCell id="gMwwXliwbp9NPooSaeSw-92" value="" style="shape=tableRow;horizontal=0;startSize=0;swimlaneHead=0;swimlaneBody=0;fillColor=none;collapsible=0;dropTarget=0;points=[[0,0.5],[1,0.5]];portConstraint=eastwest;top=0;left=0;right=0;bottom=0;" vertex="1" parent="gMwwXliwbp9NPooSaeSw-85">
          <mxGeometry y="90" width="180" height="30" as="geometry" />
        </mxCell>
        <mxCell id="gMwwXliwbp9NPooSaeSw-93" value="" style="shape=partialRectangle;connectable=0;fillColor=none;top=0;left=0;bottom=0;right=0;editable=1;overflow=hidden;whiteSpace=wrap;html=1;" vertex="1" parent="gMwwXliwbp9NPooSaeSw-92">
          <mxGeometry width="30" height="30" as="geometry">
            <mxRectangle width="30" height="30" as="alternateBounds" />
          </mxGeometry>
        </mxCell>
        <mxCell id="gMwwXliwbp9NPooSaeSw-94" value="Email" style="shape=partialRectangle;connectable=0;fillColor=none;top=0;left=0;bottom=0;right=0;align=left;spacingLeft=6;overflow=hidden;whiteSpace=wrap;html=1;" vertex="1" parent="gMwwXliwbp9NPooSaeSw-92">
          <mxGeometry x="30" width="150" height="30" as="geometry">
            <mxRectangle width="150" height="30" as="alternateBounds" />
          </mxGeometry>
        </mxCell>
        <mxCell id="gMwwXliwbp9NPooSaeSw-95" value="" style="shape=tableRow;horizontal=0;startSize=0;swimlaneHead=0;swimlaneBody=0;fillColor=none;collapsible=0;dropTarget=0;points=[[0,0.5],[1,0.5]];portConstraint=eastwest;top=0;left=0;right=0;bottom=0;" vertex="1" parent="gMwwXliwbp9NPooSaeSw-85">
          <mxGeometry y="120" width="180" height="30" as="geometry" />
        </mxCell>
        <mxCell id="gMwwXliwbp9NPooSaeSw-96" value="" style="shape=partialRectangle;connectable=0;fillColor=none;top=0;left=0;bottom=0;right=0;editable=1;overflow=hidden;whiteSpace=wrap;html=1;" vertex="1" parent="gMwwXliwbp9NPooSaeSw-95">
          <mxGeometry width="30" height="30" as="geometry">
            <mxRectangle width="30" height="30" as="alternateBounds" />
          </mxGeometry>
        </mxCell>
        <mxCell id="gMwwXliwbp9NPooSaeSw-97" value="Contraseña" style="shape=partialRectangle;connectable=0;fillColor=none;top=0;left=0;bottom=0;right=0;align=left;spacingLeft=6;overflow=hidden;whiteSpace=wrap;html=1;" vertex="1" parent="gMwwXliwbp9NPooSaeSw-95">
          <mxGeometry x="30" width="150" height="30" as="geometry">
            <mxRectangle width="150" height="30" as="alternateBounds" />
          </mxGeometry>
        </mxCell>
        <mxCell id="gMwwXliwbp9NPooSaeSw-98" value="Turno" style="shape=table;startSize=30;container=1;collapsible=1;childLayout=tableLayout;fixedRows=1;rowLines=0;fontStyle=1;align=center;resizeLast=1;html=1;" vertex="1" parent="1">
          <mxGeometry x="470" y="780" width="180" height="210" as="geometry" />
        </mxCell>
        <mxCell id="gMwwXliwbp9NPooSaeSw-99" value="" style="shape=tableRow;horizontal=0;startSize=0;swimlaneHead=0;swimlaneBody=0;fillColor=none;collapsible=0;dropTarget=0;points=[[0,0.5],[1,0.5]];portConstraint=eastwest;top=0;left=0;right=0;bottom=1;" vertex="1" parent="gMwwXliwbp9NPooSaeSw-98">
          <mxGeometry y="30" width="180" height="30" as="geometry" />
        </mxCell>
        <mxCell id="gMwwXliwbp9NPooSaeSw-100" value="PK" style="shape=partialRectangle;connectable=0;fillColor=none;top=0;left=0;bottom=0;right=0;fontStyle=1;overflow=hidden;whiteSpace=wrap;html=1;" vertex="1" parent="gMwwXliwbp9NPooSaeSw-99">
          <mxGeometry width="30" height="30" as="geometry">
            <mxRectangle width="30" height="30" as="alternateBounds" />
          </mxGeometry>
        </mxCell>
        <mxCell id="gMwwXliwbp9NPooSaeSw-101" value="Turno_ID" style="shape=partialRectangle;connectable=0;fillColor=none;top=0;left=0;bottom=0;right=0;align=left;spacingLeft=6;fontStyle=5;overflow=hidden;whiteSpace=wrap;html=1;" vertex="1" parent="gMwwXliwbp9NPooSaeSw-99">
          <mxGeometry x="30" width="150" height="30" as="geometry">
            <mxRectangle width="150" height="30" as="alternateBounds" />
          </mxGeometry>
        </mxCell>
        <mxCell id="gMwwXliwbp9NPooSaeSw-102" value="" style="shape=tableRow;horizontal=0;startSize=0;swimlaneHead=0;swimlaneBody=0;fillColor=none;collapsible=0;dropTarget=0;points=[[0,0.5],[1,0.5]];portConstraint=eastwest;top=0;left=0;right=0;bottom=0;" vertex="1" parent="gMwwXliwbp9NPooSaeSw-98">
          <mxGeometry y="60" width="180" height="30" as="geometry" />
        </mxCell>
        <mxCell id="gMwwXliwbp9NPooSaeSw-103" value="" style="shape=partialRectangle;connectable=0;fillColor=none;top=0;left=0;bottom=0;right=0;editable=1;overflow=hidden;whiteSpace=wrap;html=1;" vertex="1" parent="gMwwXliwbp9NPooSaeSw-102">
          <mxGeometry width="30" height="30" as="geometry">
            <mxRectangle width="30" height="30" as="alternateBounds" />
          </mxGeometry>
        </mxCell>
        <mxCell id="gMwwXliwbp9NPooSaeSw-104" value="Servicio_Seleccionado" style="shape=partialRectangle;connectable=0;fillColor=none;top=0;left=0;bottom=0;right=0;align=left;spacingLeft=6;overflow=hidden;whiteSpace=wrap;html=1;" vertex="1" parent="gMwwXliwbp9NPooSaeSw-102">
          <mxGeometry x="30" width="150" height="30" as="geometry">
            <mxRectangle width="150" height="30" as="alternateBounds" />
          </mxGeometry>
        </mxCell>
        <mxCell id="gMwwXliwbp9NPooSaeSw-105" value="" style="shape=tableRow;horizontal=0;startSize=0;swimlaneHead=0;swimlaneBody=0;fillColor=none;collapsible=0;dropTarget=0;points=[[0,0.5],[1,0.5]];portConstraint=eastwest;top=0;left=0;right=0;bottom=0;" vertex="1" parent="gMwwXliwbp9NPooSaeSw-98">
          <mxGeometry y="90" width="180" height="30" as="geometry" />
        </mxCell>
        <mxCell id="gMwwXliwbp9NPooSaeSw-106" value="" style="shape=partialRectangle;connectable=0;fillColor=none;top=0;left=0;bottom=0;right=0;editable=1;overflow=hidden;whiteSpace=wrap;html=1;" vertex="1" parent="gMwwXliwbp9NPooSaeSw-105">
          <mxGeometry width="30" height="30" as="geometry">
            <mxRectangle width="30" height="30" as="alternateBounds" />
          </mxGeometry>
        </mxCell>
        <mxCell id="gMwwXliwbp9NPooSaeSw-107" value="Fecha" style="shape=partialRectangle;connectable=0;fillColor=none;top=0;left=0;bottom=0;right=0;align=left;spacingLeft=6;overflow=hidden;whiteSpace=wrap;html=1;" vertex="1" parent="gMwwXliwbp9NPooSaeSw-105">
          <mxGeometry x="30" width="150" height="30" as="geometry">
            <mxRectangle width="150" height="30" as="alternateBounds" />
          </mxGeometry>
        </mxCell>
        <mxCell id="gMwwXliwbp9NPooSaeSw-108" value="" style="shape=tableRow;horizontal=0;startSize=0;swimlaneHead=0;swimlaneBody=0;fillColor=none;collapsible=0;dropTarget=0;points=[[0,0.5],[1,0.5]];portConstraint=eastwest;top=0;left=0;right=0;bottom=0;" vertex="1" parent="gMwwXliwbp9NPooSaeSw-98">
          <mxGeometry y="120" width="180" height="30" as="geometry" />
        </mxCell>
        <mxCell id="gMwwXliwbp9NPooSaeSw-109" value="" style="shape=partialRectangle;connectable=0;fillColor=none;top=0;left=0;bottom=0;right=0;editable=1;overflow=hidden;whiteSpace=wrap;html=1;" vertex="1" parent="gMwwXliwbp9NPooSaeSw-108">
          <mxGeometry width="30" height="30" as="geometry">
            <mxRectangle width="30" height="30" as="alternateBounds" />
          </mxGeometry>
        </mxCell>
        <mxCell id="gMwwXliwbp9NPooSaeSw-110" value="HoraInicio" style="shape=partialRectangle;connectable=0;fillColor=none;top=0;left=0;bottom=0;right=0;align=left;spacingLeft=6;overflow=hidden;whiteSpace=wrap;html=1;" vertex="1" parent="gMwwXliwbp9NPooSaeSw-108">
          <mxGeometry x="30" width="150" height="30" as="geometry">
            <mxRectangle width="150" height="30" as="alternateBounds" />
          </mxGeometry>
        </mxCell>
        <mxCell id="gMwwXliwbp9NPooSaeSw-127" style="shape=tableRow;horizontal=0;startSize=0;swimlaneHead=0;swimlaneBody=0;fillColor=none;collapsible=0;dropTarget=0;points=[[0,0.5],[1,0.5]];portConstraint=eastwest;top=0;left=0;right=0;bottom=0;" vertex="1" parent="gMwwXliwbp9NPooSaeSw-98">
          <mxGeometry y="150" width="180" height="30" as="geometry" />
        </mxCell>
        <mxCell id="gMwwXliwbp9NPooSaeSw-128" style="shape=partialRectangle;connectable=0;fillColor=none;top=0;left=0;bottom=0;right=0;editable=1;overflow=hidden;whiteSpace=wrap;html=1;" vertex="1" parent="gMwwXliwbp9NPooSaeSw-127">
          <mxGeometry width="30" height="30" as="geometry">
            <mxRectangle width="30" height="30" as="alternateBounds" />
          </mxGeometry>
        </mxCell>
        <mxCell id="gMwwXliwbp9NPooSaeSw-129" value="HoraFin" style="shape=partialRectangle;connectable=0;fillColor=none;top=0;left=0;bottom=0;right=0;align=left;spacingLeft=6;overflow=hidden;whiteSpace=wrap;html=1;" vertex="1" parent="gMwwXliwbp9NPooSaeSw-127">
          <mxGeometry x="30" width="150" height="30" as="geometry">
            <mxRectangle width="150" height="30" as="alternateBounds" />
          </mxGeometry>
        </mxCell>
        <mxCell id="gMwwXliwbp9NPooSaeSw-124" style="shape=tableRow;horizontal=0;startSize=0;swimlaneHead=0;swimlaneBody=0;fillColor=none;collapsible=0;dropTarget=0;points=[[0,0.5],[1,0.5]];portConstraint=eastwest;top=0;left=0;right=0;bottom=0;" vertex="1" parent="gMwwXliwbp9NPooSaeSw-98">
          <mxGeometry y="180" width="180" height="30" as="geometry" />
        </mxCell>
        <mxCell id="gMwwXliwbp9NPooSaeSw-125" value="FK" style="shape=partialRectangle;connectable=0;fillColor=none;top=0;left=0;bottom=0;right=0;editable=1;overflow=hidden;whiteSpace=wrap;html=1;" vertex="1" parent="gMwwXliwbp9NPooSaeSw-124">
          <mxGeometry width="30" height="30" as="geometry">
            <mxRectangle width="30" height="30" as="alternateBounds" />
          </mxGeometry>
        </mxCell>
        <mxCell id="gMwwXliwbp9NPooSaeSw-126" value="Cliente_ID" style="shape=partialRectangle;connectable=0;fillColor=none;top=0;left=0;bottom=0;right=0;align=left;spacingLeft=6;overflow=hidden;whiteSpace=wrap;html=1;" vertex="1" parent="gMwwXliwbp9NPooSaeSw-124">
          <mxGeometry x="30" width="150" height="30" as="geometry">
            <mxRectangle width="150" height="30" as="alternateBounds" />
          </mxGeometry>
        </mxCell>
        <mxCell id="gMwwXliwbp9NPooSaeSw-111" value="Telefono" style="shape=table;startSize=30;container=1;collapsible=1;childLayout=tableLayout;fixedRows=1;rowLines=0;fontStyle=1;align=center;resizeLast=1;html=1;" vertex="1" parent="1">
          <mxGeometry x="40" y="780" width="180" height="90" as="geometry" />
        </mxCell>
        <mxCell id="gMwwXliwbp9NPooSaeSw-112" value="" style="shape=tableRow;horizontal=0;startSize=0;swimlaneHead=0;swimlaneBody=0;fillColor=none;collapsible=0;dropTarget=0;points=[[0,0.5],[1,0.5]];portConstraint=eastwest;top=0;left=0;right=0;bottom=1;" vertex="1" parent="gMwwXliwbp9NPooSaeSw-111">
          <mxGeometry y="30" width="180" height="30" as="geometry" />
        </mxCell>
        <mxCell id="gMwwXliwbp9NPooSaeSw-113" value="PK" style="shape=partialRectangle;connectable=0;fillColor=none;top=0;left=0;bottom=0;right=0;fontStyle=1;overflow=hidden;whiteSpace=wrap;html=1;" vertex="1" parent="gMwwXliwbp9NPooSaeSw-112">
          <mxGeometry width="30" height="30" as="geometry">
            <mxRectangle width="30" height="30" as="alternateBounds" />
          </mxGeometry>
        </mxCell>
        <mxCell id="gMwwXliwbp9NPooSaeSw-114" value="Telefono" style="shape=partialRectangle;connectable=0;fillColor=none;top=0;left=0;bottom=0;right=0;align=left;spacingLeft=6;fontStyle=5;overflow=hidden;whiteSpace=wrap;html=1;" vertex="1" parent="gMwwXliwbp9NPooSaeSw-112">
          <mxGeometry x="30" width="150" height="30" as="geometry">
            <mxRectangle width="150" height="30" as="alternateBounds" />
          </mxGeometry>
        </mxCell>
        <mxCell id="gMwwXliwbp9NPooSaeSw-115" value="" style="shape=tableRow;horizontal=0;startSize=0;swimlaneHead=0;swimlaneBody=0;fillColor=none;collapsible=0;dropTarget=0;points=[[0,0.5],[1,0.5]];portConstraint=eastwest;top=0;left=0;right=0;bottom=0;" vertex="1" parent="gMwwXliwbp9NPooSaeSw-111">
          <mxGeometry y="60" width="180" height="30" as="geometry" />
        </mxCell>
        <mxCell id="gMwwXliwbp9NPooSaeSw-116" value="FK" style="shape=partialRectangle;connectable=0;fillColor=none;top=0;left=0;bottom=0;right=0;editable=1;overflow=hidden;whiteSpace=wrap;html=1;" vertex="1" parent="gMwwXliwbp9NPooSaeSw-115">
          <mxGeometry width="30" height="30" as="geometry">
            <mxRectangle width="30" height="30" as="alternateBounds" />
          </mxGeometry>
        </mxCell>
        <mxCell id="gMwwXliwbp9NPooSaeSw-117" value="Cliente_ID" style="shape=partialRectangle;connectable=0;fillColor=none;top=0;left=0;bottom=0;right=0;align=left;spacingLeft=6;overflow=hidden;whiteSpace=wrap;html=1;" vertex="1" parent="gMwwXliwbp9NPooSaeSw-115">
          <mxGeometry x="30" width="150" height="30" as="geometry">
            <mxRectangle width="150" height="30" as="alternateBounds" />
          </mxGeometry>
        </mxCell>
        <mxCell id="gMwwXliwbp9NPooSaeSw-130" value="MER" style="text;strokeColor=none;fillColor=none;spacingLeft=4;spacingRight=4;overflow=hidden;rotatable=0;points=[[0,0.5],[1,0.5]];portConstraint=eastwest;fontSize=12;whiteSpace=wrap;html=1;" vertex="1" parent="1">
          <mxGeometry x="15" y="430" width="150" height="30" as="geometry" />
        </mxCell>
        <mxCell id="gMwwXliwbp9NPooSaeSw-131" value="MR" style="text;strokeColor=none;fillColor=none;spacingLeft=4;spacingRight=4;overflow=hidden;rotatable=0;points=[[0,0.5],[1,0.5]];portConstraint=eastwest;fontSize=12;whiteSpace=wrap;html=1;" vertex="1" parent="1">
          <mxGeometry x="40" y="740" width="150" height="30" as="geometry" />
        </mxCell>
      </root>
    </mxGraphModel>
  </diagram>
</mxfile>
